<?xml version="1.0" encoding="UTF-8"?>
<svg width="700pt" height="700pt" version="1.1" viewBox="0 0 700 700" xmlns="http://www.w3.org/2000/svg" xmlns:xlink="http://www.w3.org/1999/xlink">
 <g>
  <path d="m350 61.602c-79.91 0-145.6 62.312-145.6 151.2 0 31.719 7.4727 53.785 21.352 78.227l114.45 201.6v-0.003906c1.9727 3.5664 5.7266 5.7773 9.8008 5.7773s7.8281-2.2109 9.8008-5.7773l114.45-201.6c13.879-24.438 21.352-46.504 21.352-78.223 0-88.887-65.691-151.2-145.6-151.2zm0 22.398c68.543 0 123.2 50.676 123.2 128.8 0 28.473-5.5234 44.57-18.375 67.199l-104.82 184.45-104.82-184.45c-12.852-22.629-18.375-38.73-18.375-67.199 0-78.125 54.656-128.8 123.2-128.8zm0 44.801c-43.168 0-78.398 35.234-78.398 78.398 0 43.164 35.234 78.398 78.398 78.398 43.168 0 78.398-35.234 78.398-78.398 0-43.168-35.234-78.398-78.398-78.398zm0 22.398c31.062 0 56 24.941 56 56 0 31.059-24.941 56-56 56s-56-24.941-56-56c0-31.059 24.938-56 56-56z"/>
  <use x="70" y="644" xlink:href="#x"/>
  <use x="90.550781" y="644" xlink:href="#b"/>
  <use x="104.359375" y="644" xlink:href="#a"/>
  <use x="123.347656" y="644" xlink:href="#k"/>
  <use x="142.242188" y="644" xlink:href="#c"/>
  <use x="155.628906" y="644" xlink:href="#a"/>
  <use x="174.617188" y="644" xlink:href="#j"/>
  <use x="204.410156" y="644" xlink:href="#i"/>
  <use x="224.453125" y="644" xlink:href="#h"/>
  <use x="252.453125" y="644" xlink:href="#g"/>
  <use x="271.550781" y="644" xlink:href="#f"/>
  <use x="291.484375" y="644" xlink:href="#b"/>
  <use x="305.292969" y="644" xlink:href="#a"/>
  <use x="324.28125" y="644" xlink:href="#a"/>
  <use x="353.023438" y="644" xlink:href="#w"/>
  <use x="373.1875" y="644" xlink:href="#e"/>
  <use x="382.785156" y="644" xlink:href="#v"/>
  <use x="410.59375" y="644" xlink:href="#u"/>
  <use x="429.71875" y="644" xlink:href="#e"/>
  <use x="439.320312" y="644" xlink:href="#t"/>
  <use x="457.570312" y="644" xlink:href="#a"/>
  <use x="70" y="672" xlink:href="#s"/>
  <use x="82.183594" y="672" xlink:href="#b"/>
  <use x="95.992188" y="672" xlink:href="#d"/>
  <use x="115.226562" y="672" xlink:href="#r"/>
  <use x="154.152344" y="672" xlink:href="#c"/>
  <use x="167.535156" y="672" xlink:href="#f"/>
  <use x="187.46875" y="672" xlink:href="#a"/>
  <use x="216.207031" y="672" xlink:href="#q"/>
  <use x="239.640625" y="672" xlink:href="#d"/>
  <use x="258.878906" y="672" xlink:href="#p"/>
  <use x="278.8125" y="672" xlink:href="#o"/>
  <use x="308.492188" y="672" xlink:href="#n"/>
  <use x="329.015625" y="672" xlink:href="#b"/>
  <use x="342.820312" y="672" xlink:href="#d"/>
  <use x="362.058594" y="672" xlink:href="#m"/>
  <use x="371.65625" y="672" xlink:href="#a"/>
  <use x="390.648438" y="672" xlink:href="#l"/>
  <use x="407.242188" y="672" xlink:href="#c"/>
 </g>
</svg>
