<?xml version="1.0" encoding="UTF-8"?>
<svg width="700pt" height="700pt" version="1.1" viewBox="0 0 700 700" xmlns="http://www.w3.org/2000/svg" xmlns:xlink="http://www.w3.org/1999/xlink">
 <g>
  <path d="m519.12 425.04-62.723-62.16c47.602-59.359 43.121-146.72-11.199-201.04-28.559-28.559-66.078-44.238-106.4-44.238-40.32 0-78.398 15.68-106.96 44.238-28.559 28.559-44.238 66.082-44.238 106.96 0 40.879 15.68 78.398 44.238 106.96 28.559 28 66.082 44.238 106.96 44.238 34.16 0 67.762-11.762 94.078-33.039l62.16 62.16c3.3594 3.3594 7.2812 5.0391 11.762 5.0391s8.9609-1.6797 11.762-5.0391c6.7188-6.7227 6.7188-17.359 0.55859-24.082zm-62.723-156.24c0 31.359-12.32 61.039-34.719 82.879-22.398 21.84-51.52 34.719-82.879 34.719s-61.039-12.32-82.879-34.719c-21.844-22.398-34.723-51.52-34.723-82.879s12.32-61.039 34.719-82.879c22.402-21.844 50.961-34.723 82.883-34.723 31.359 0 61.039 12.32 82.879 34.719 21.84 22.402 34.719 50.961 34.719 82.883z"/>
  <use x="70" y="644" xlink:href="#t"/>
  <use x="90.550781" y="644" xlink:href="#c"/>
  <use x="104.359375" y="644" xlink:href="#a"/>
  <use x="123.347656" y="644" xlink:href="#j"/>
  <use x="142.242188" y="644" xlink:href="#b"/>
  <use x="155.628906" y="644" xlink:href="#a"/>
  <use x="174.617188" y="644" xlink:href="#i"/>
  <use x="204.410156" y="644" xlink:href="#h"/>
  <use x="224.453125" y="644" xlink:href="#g"/>
  <use x="252.453125" y="644" xlink:href="#e"/>
  <use x="262.046875" y="644" xlink:href="#f"/>
  <use x="281.984375" y="644" xlink:href="#s"/>
  <use x="291.578125" y="644" xlink:href="#r"/>
  <use x="70" y="672" xlink:href="#q"/>
  <use x="82.183594" y="672" xlink:href="#c"/>
  <use x="95.992188" y="672" xlink:href="#d"/>
  <use x="115.226562" y="672" xlink:href="#p"/>
  <use x="154.152344" y="672" xlink:href="#b"/>
  <use x="167.535156" y="672" xlink:href="#o"/>
  <use x="187.46875" y="672" xlink:href="#a"/>
  <use x="216.207031" y="672" xlink:href="#n"/>
  <use x="239.640625" y="672" xlink:href="#d"/>
  <use x="258.878906" y="672" xlink:href="#f"/>
  <use x="278.8125" y="672" xlink:href="#m"/>
  <use x="308.492188" y="672" xlink:href="#l"/>
  <use x="329.015625" y="672" xlink:href="#c"/>
  <use x="342.820312" y="672" xlink:href="#d"/>
  <use x="362.058594" y="672" xlink:href="#e"/>
  <use x="371.65625" y="672" xlink:href="#a"/>
  <use x="390.648438" y="672" xlink:href="#k"/>
  <use x="407.242188" y="672" xlink:href="#b"/>
 </g>
</svg>
